<svg width="28" height="14" viewBox="0 0 28 14" fill="none" xmlns="http://www.w3.org/2000/svg">
<path d="M1.53125 0.46875L7.25 6.46875C7.39583 6.61458 7.46875 6.78125 7.46875 6.96875C7.46875 7.15625 7.39583 7.33333 7.25 7.5L1.53125 13.4688C1.19792 13.7604 0.84375 13.7708 0.46875 13.5C0.177083 13.1458 0.177083 12.7917 0.46875 12.4375L5.71875 6.9375L0.46875 1.53125C0.177083 1.15625 0.177083 0.802083 0.46875 0.46875C0.84375 0.177083 1.19792 0.177083 1.53125 0.46875ZM11.5312 0.46875L17.25 6.46875C17.3958 6.61458 17.4688 6.78125 17.4688 6.96875C17.4688 7.15625 17.3958 7.33333 17.25 7.5L11.5312 13.4688C11.1979 13.7604 10.8438 13.7708 10.4688 13.5C10.1771 13.1458 10.1771 12.7917 10.4688 12.4375L15.7188 6.9375L10.4688 1.53125C10.1771 1.15625 10.1771 0.802083 10.4688 0.46875C10.8438 0.177083 11.1979 0.177083 11.5312 0.46875ZM21.5312 0.46875L27.25 6.46875C27.3958 6.61458 27.4688 6.78125 27.4688 6.96875C27.4688 7.15625 27.3958 7.33333 27.25 7.5L21.5312 13.4688C21.1979 13.7604 20.8438 13.7708 20.4688 13.5C20.1771 13.1458 20.1771 12.7917 20.4688 12.4375L25.7188 6.9375L20.4688 1.53125C20.1771 1.15625 20.1771 0.802083 20.4688 0.46875C20.8438 0.177083 21.1979 0.177083 21.5312 0.46875Z" fill="white"/>
</svg>
